<?xml version="1.0" encoding="UTF-8"?>
<svg id="Layer_11" data-name="Layer 11" xmlns="http://www.w3.org/2000/svg" viewBox="0 0 333.01 333.33">
  <g id="Logo">
    <path d="M329.18,156.97c3.12,53.87-19.94,102.49-57.63,134.3-6.83,5.76-16.38-2.78-11.45-10.23,14.7-22.25,23.26-48.93,23.26-77.59,0-57.98-35.01-107.79-85.06-129.42-.33-.15-.65-.3-1.01-.44-1.89-.89-3.88-1.66-5.89-2.31-5.36-1.75-11.07-2.69-17.02-2.69-30.34,0-54.93,24.5-54.93,54.75,0,15.02,6.06,28.61,15.88,38.49,1.88,1.89,4.42,2.97,7.09,2.97h0c16.04,0,31.07,4.38,43.95,11.99,25.57,15.06,42.71,42.85,42.71,74.67,0,27.76-13.06,52.48-33.38,68.32-8.33,6.5-18.67,9.89-29.24,9.9h0c-36.58,0-70.35-12.05-97.55-32.38C31.94,269.62,7.11,226.65,3.83,177.76c-.27-3.67-.38-7.37-.38-11.1C3.44,74.07,80.63-.49,174.17,3.83c82.75,3.82,150.23,70.45,155.01,153.14Z" style="fill: #00af64;"/>
    <circle cx="175.2" cy="118.61" r="15.54" style="fill: #00af64;"/>
  </g>
</svg>