<?xml version="1.0" encoding="UTF-8"?>
<svg id="Layer_11" data-name="Layer 11" xmlns="http://www.w3.org/2000/svg" viewBox="0 0 1346.93 334.41">
  <g>
    <path d="M554.4,145.2h37.96c.77,0,1.4,.63,1.4,1.4v65.41c0,.46-.22,.89-.59,1.15-9.18,6.47-19.69,11.46-31.55,14.95-12.11,3.57-24.22,5.36-36.33,5.36-17.08,0-32.45-3.61-46.11-10.83-13.66-7.22-24.38-17.27-32.14-30.16-7.77-12.89-11.64-27.48-11.64-43.78s3.88-30.9,11.64-43.78c7.76-12.89,18.55-22.94,32.37-30.16,13.82-7.22,29.42-10.83,46.81-10.83,15.22,0,28.88,2.56,40.99,7.69,11.67,4.94,21.47,11.97,29.39,21.09,.5,.57,.44,1.45-.13,1.95l-27.31,24.71c-.57,.51-1.43,.47-1.96-.09-10.83-11.44-23.72-17.16-38.65-17.16-13.97,0-25.23,4.23-33.77,12.69-8.54,8.46-12.81,19.76-12.81,33.89,0,9.01,1.94,17.04,5.82,24.1,3.88,7.07,9.32,12.58,16.3,16.54,6.99,3.96,14.98,5.94,23.99,5.94,8.54,0,16.56-1.66,24.09-4.98,.51-.22,.83-.73,.83-1.29v-42.41c0-.77,.63-1.4,1.4-1.4Z" style="fill: #00af64;"/>
    <path d="M693.62,135.95c9.17,7.94,13.75,20.11,13.75,36.51v56.9c0,.77-.63,1.4-1.4,1.4h-31.48c-.77,0-1.4-.63-1.4-1.4v-7.34c0-1.35-1.7-1.9-2.52-.83-5.77,7.54-15.25,11.31-28.46,11.31-8.13,0-15.17-1.42-21.11-4.26-5.94-2.84-10.43-6.68-13.46-11.52-3.04-4.84-4.55-10.36-4.55-16.56,0-9.94,3.81-17.66,11.43-23.14,7.62-5.49,19.37-8.23,35.25-8.23h19.38c.84,0,1.5-.74,1.39-1.57-1.24-10.06-8.62-15.09-22.13-15.09-5.04,0-10.14,.81-15.3,2.42-4.56,1.43-8.52,3.33-11.87,5.71-.69,.49-1.67,.24-2.04-.53l-11.1-22.37c-.32-.64-.11-1.42,.49-1.8,5.61-3.55,12.33-6.32,20.16-8.33,8.33-2.13,16.69-3.2,25.08-3.2,17.43,0,30.73,3.97,39.9,11.91Zm-30.02,70.21c3.16-2.02,5.45-4.98,6.88-8.86,.06-.16,.09-.33,.09-.5v-7.45c0-.77-.63-1.4-1.4-1.4h-14.48c-10.72,0-16.08,3.55-16.08,10.65,0,3.23,1.23,5.81,3.68,7.75,2.45,1.94,5.81,2.91,10.07,2.91s8-1.03,11.23-3.1Z" style="fill: #00af64;"/>
    <path d="M717.16,87.05h34c.77,0,1.4,.63,1.4,1.4V229.36c0,.77-.63,1.4-1.4,1.4h-34c-.77,0-1.4-.63-1.4-1.4V88.45c0-.77,.63-1.4,1.4-1.4Z" style="fill: #00af64;"/>
    <path d="M848.74,135.95c9.17,7.94,13.75,20.11,13.75,36.51v56.9c0,.77-.63,1.4-1.4,1.4h-31.48c-.77,0-1.4-.63-1.4-1.4v-7.34c0-1.35-1.7-1.9-2.52-.83-5.77,7.54-15.25,11.31-28.46,11.31-8.13,0-15.17-1.42-21.11-4.26-5.94-2.84-10.43-6.68-13.46-11.52-3.04-4.84-4.55-10.36-4.55-16.56,0-9.94,3.81-17.66,11.43-23.14,7.62-5.49,19.37-8.23,35.25-8.23h19.38c.84,0,1.5-.74,1.39-1.57-1.24-10.06-8.62-15.09-22.13-15.09-5.04,0-10.14,.81-15.3,2.42-4.56,1.43-8.52,3.33-11.87,5.71-.69,.49-1.67,.24-2.04-.53l-11.1-22.37c-.32-.64-.11-1.42,.49-1.8,5.61-3.55,12.33-6.32,20.16-8.33,8.33-2.13,16.69-3.2,25.08-3.2,17.43,0,30.73,3.97,39.9,11.91Zm-30.02,70.21c3.16-2.02,5.45-4.98,6.88-8.86,.06-.16,.09-.33,.09-.5v-7.45c0-.77-.63-1.4-1.4-1.4h-14.48c-10.72,0-16.08,3.55-16.08,10.65,0,3.23,1.23,5.81,3.68,7.75,2.45,1.94,5.81,2.91,10.07,2.91s8-1.03,11.23-3.1Zm5.32-113.55h21.14c1.32,0,1.9,1.66,.88,2.49l-22,17.78c-.25,.2-.56,.31-.88,.31h-14.82c-1.2,0-1.85-1.42-1.05-2.32l15.68-17.78c.27-.3,.65-.47,1.05-.47Z" style="fill: #00af64;"/>
    <path d="M961.7,130.72c7.81,4.45,14.01,10.78,18.59,18.98,4.58,8.2,6.88,17.72,6.88,28.57s-2.29,20.37-6.88,28.57c-4.58,8.2-10.78,14.53-18.59,18.98-7.81,4.45-16.5,6.68-26.05,6.68-11.01,0-19.99-2.96-26.94-8.89-.91-.77-2.3-.13-2.3,1.06v43.86c0,.77-.63,1.4-1.4,1.4h-34c-.77,0-1.4-.63-1.4-1.4V127.18c0-.77,.63-1.4,1.4-1.4h32.26c.77,0,1.4,.63,1.4,1.4v5.54c0,1.23,1.47,1.85,2.36,1,6.77-6.46,16.31-9.68,28.62-9.68,9.55,0,18.24,2.23,26.05,6.68Zm-17.91,65.85c4.13-4.45,6.2-10.56,6.2-18.3s-2.07-13.85-6.2-18.3c-4.13-4.45-9.43-6.68-15.88-6.68s-11.75,2.23-15.88,6.68c-4.13,4.45-6.2,10.56-6.2,18.3s2.06,13.85,6.2,18.3c4.13,4.45,9.42,6.68,15.88,6.68s11.75-2.23,15.88-6.68Z" style="fill: #00af64;"/>
    <path d="M1080.18,135.95c9.17,7.94,13.75,20.11,13.75,36.51v56.9c0,.77-.63,1.4-1.4,1.4h-31.48c-.77,0-1.4-.63-1.4-1.4v-7.34c0-1.35-1.7-1.9-2.52-.83-5.77,7.54-15.25,11.31-28.46,11.31-8.13,0-15.17-1.42-21.11-4.26-5.94-2.84-10.43-6.68-13.46-11.52-3.04-4.84-4.55-10.36-4.55-16.56,0-9.94,3.81-17.66,11.43-23.14,7.62-5.49,19.37-8.23,35.25-8.23h19.38c.84,0,1.5-.74,1.39-1.57-1.24-10.06-8.62-15.09-22.13-15.09-5.04,0-10.14,.81-15.3,2.42-4.56,1.43-8.52,3.33-11.87,5.71-.69,.49-1.67,.24-2.04-.53l-11.1-22.37c-.32-.64-.11-1.42,.49-1.8,5.61-3.55,12.33-6.32,20.16-8.33,8.33-2.13,16.69-3.2,25.08-3.2,17.43,0,30.73,3.97,39.9,11.91Zm-30.02,70.21c3.16-2.02,5.45-4.98,6.88-8.86,.06-.16,.09-.33,.09-.5v-7.45c0-.77-.63-1.4-1.4-1.4h-14.48c-10.72,0-16.08,3.55-16.08,10.65,0,3.23,1.23,5.81,3.68,7.75,2.45,1.94,5.81,2.91,10.07,2.91s8-1.03,11.23-3.1Z" style="fill: #00af64;"/>
    <path d="M1182.33,127.18v7.44c0,1.27-1.56,1.9-2.42,.96-6.99-7.69-17.16-11.54-30.51-11.54-9.3,0-17.89,2.1-25.76,6.3s-14.13,10.13-18.78,17.82c-4.65,7.68-6.97,16.49-6.97,26.44s2.32,18.95,6.97,26.63c4.65,7.68,10.91,13.62,18.78,17.82,7.87,4.2,16.47,6.29,25.76,6.29,12.24,0,21.85-3.31,28.82-9.92,.89-.85,2.36-.22,2.36,1.01h0c0,8.4-2.26,14.72-6.77,18.98-4.52,4.26-11.62,6.39-21.3,6.39h-53.15c-.77,0-1.4,.63-1.4,1.4v25.44c0,.77,.63,1.4,1.4,1.4h53.15c1.09,.03,2.19,.04,3.29,.04,19.88,0,35.12-4.87,45.71-14.62,10.59-9.76,15.88-24.37,15.88-43.87V127.18c0-.77-.63-1.4-1.4-1.4h-32.25c-.77,0-1.4,.63-1.4,1.4Zm-7.84,62.9c-4.33,4-9.79,6-16.37,6s-12.07-2-16.46-6c-4.4-4-6.59-9.17-6.59-15.49s2.16-11.45,6.49-15.4c4.32-3.94,9.84-5.91,16.55-5.91s12.21,1.97,16.47,5.91c4.26,3.94,6.39,9.08,6.39,15.4s-2.16,11.49-6.48,15.49Z" style="fill: #00af64;"/>
    <path d="M1251.78,225.53c-9.04-4.65-16.11-11.1-21.21-19.37-5.1-8.26-7.65-17.62-7.65-28.08s2.55-19.62,7.65-27.89c5.1-8.26,12.14-14.69,21.11-19.27,8.97-4.58,19.14-6.88,30.5-6.88s21.56,2.29,30.6,6.88c9.04,4.58,16.08,10.98,21.11,19.17,5.04,8.2,7.55,17.53,7.55,27.99s-2.52,19.82-7.55,28.08c-5.04,8.26-12.07,14.72-21.11,19.37-9.04,4.65-19.24,6.97-30.6,6.97s-21.37-2.32-30.41-6.97Zm46.29-28.95c4.13-4.45,6.2-10.62,6.2-18.5s-2.07-13.81-6.2-18.21c-4.13-4.39-9.43-6.59-15.88-6.59s-11.75,2.2-15.88,6.59c-4.13,4.39-6.2,10.46-6.2,18.21s2.06,14.04,6.2,18.5c4.13,4.45,9.42,6.68,15.88,6.68s11.75-2.23,15.88-6.68Z" style="fill: #00af64;"/>
    <g>
      <path d="M921.21,269.43c-1-.29-1.9-.62-2.7-.99-1.29-.6-1.85-2.13-1.26-3.43l.03-.07c.6-1.32,2.15-1.9,3.47-1.29,.61,.28,1.26,.53,1.94,.76,1.63,.53,3.26,.79,4.89,.79,1.82,0,3.16-.27,4.03-.81,.87-.54,1.3-1.26,1.3-2.15,0-.66-.26-1.2-.77-1.64-.51-.43-1.17-.78-1.97-1.05-.8-.26-1.89-.55-3.26-.87-2.11-.5-3.83-1-5.17-1.5-1.34-.5-2.49-1.3-3.45-2.41-.96-1.11-1.44-2.58-1.44-4.42,0-1.6,.43-3.06,1.3-4.36,.87-1.3,2.18-2.33,3.93-3.1,1.75-.76,3.89-1.14,6.41-1.14,1.76,0,3.49,.21,5.17,.63,.71,.18,1.39,.39,2.03,.63,1.36,.52,2.03,2.07,1.48,3.42l-.02,.06c-.54,1.34-2.06,1.95-3.4,1.43-1.77-.69-3.53-1.04-5.3-1.04s-3.11,.29-3.97,.87-1.28,1.34-1.28,2.29,.49,1.65,1.48,2.11c.99,.46,2.49,.91,4.52,1.36,2.11,.5,3.83,1,5.17,1.5,1.34,.5,2.49,1.29,3.45,2.37,.96,1.08,1.44,2.54,1.44,4.38,0,1.58-.44,3.02-1.32,4.32-.88,1.3-2.2,2.34-3.97,3.1-1.76,.76-3.91,1.14-6.43,1.14-2.18,0-4.3-.3-6.34-.89Z" style="fill: #00af64;"/>
      <path d="M949.73,247.42h-3.63c-1.44,0-2.61-1.17-2.61-2.61h0c0-1.44,1.17-2.61,2.61-2.61h18.87c1.44,0,2.61,1.17,2.61,2.61h0c0,1.44-1.17,2.61-2.61,2.61h-3.63c-1.44,0-2.61,1.17-2.61,2.61v17.21c0,1.44-1.17,2.61-2.61,2.61h-1.18c-1.44,0-2.61-1.17-2.61-2.61v-17.21c0-1.44-1.17-2.61-2.61-2.61Z" style="fill: #00af64;"/>
      <path d="M976.95,267.04c-2.2-2.18-3.3-5.3-3.3-9.36v-12.87c0-1.44,1.17-2.61,2.61-2.61h1.18c1.44,0,2.61,1.17,2.61,2.61v12.63c0,4.95,2.05,7.42,6.16,7.42,2,0,3.53-.6,4.58-1.8,1.05-1.2,1.58-3.07,1.58-5.62v-12.63c0-1.44,1.17-2.61,2.61-2.61h1.11c1.44,0,2.61,1.17,2.61,2.61v12.87c0,4.05-1.1,7.17-3.3,9.36-2.2,2.18-5.27,3.28-9.22,3.28s-7.02-1.09-9.22-3.28Z" style="fill: #00af64;"/>
      <path d="M1008.35,244.81c0-1.44,1.17-2.61,2.61-2.61h9.95c3,0,5.65,.57,7.95,1.72,2.3,1.14,4.09,2.76,5.37,4.84,1.28,2.08,1.91,4.5,1.91,7.26s-.64,5.18-1.91,7.26c-1.28,2.08-3.07,3.69-5.37,4.84-2.3,1.14-4.95,1.72-7.95,1.72h-9.95c-1.44,0-2.61-1.17-2.61-2.61v-22.42Zm12.24,19.78c2.76,0,4.97-.77,6.61-2.31,1.64-1.54,2.47-3.63,2.47-6.26s-.82-4.72-2.47-6.26c-1.65-1.54-3.85-2.31-6.61-2.31h-3.24c-1.44,0-2.61,1.17-2.61,2.61v11.92c0,1.44,1.17,2.61,2.61,2.61h3.24Z" style="fill: #00af64;"/>
      <path d="M1046.92,242.21h1.18c1.44,0,2.61,1.17,2.61,2.61v22.42c0,1.44-1.17,2.61-2.61,2.61h-1.18c-1.44,0-2.61-1.17-2.61-2.61v-22.42c0-1.44,1.17-2.61,2.61-2.61Z" style="fill: #00af64;"/>
      <path d="M1066.24,268.46c-2.3-1.24-4.11-2.94-5.41-5.11-1.3-2.17-1.95-4.61-1.95-7.32s.65-5.15,1.95-7.32c1.3-2.17,3.1-3.87,5.41-5.11,2.3-1.24,4.89-1.86,7.76-1.86s5.45,.62,7.74,1.86c2.29,1.24,4.09,2.94,5.41,5.11,1.32,2.17,1.97,4.61,1.97,7.32s-.66,5.15-1.97,7.32c-1.32,2.17-3.12,3.88-5.41,5.11-2.29,1.24-4.87,1.86-7.74,1.86s-5.45-.62-7.76-1.86Zm12.18-4.72c1.32-.75,2.35-1.8,3.1-3.14,.75-1.34,1.12-2.87,1.12-4.58s-.38-3.24-1.12-4.58c-.75-1.34-1.78-2.39-3.1-3.14-1.32-.75-2.79-1.12-4.42-1.12s-3.11,.38-4.42,1.12c-1.32,.75-2.35,1.8-3.1,3.14-.75,1.34-1.13,2.87-1.13,4.58s.38,3.24,1.13,4.58c.75,1.34,1.78,2.39,3.1,3.14,1.32,.75,2.79,1.12,4.42,1.12s3.1-.38,4.42-1.12Z" style="fill: #00af64;"/>
    </g>
  </g>
  <g id="Logo">
    <path d="M330.72,157.43c3.12,53.87-19.94,102.49-57.63,134.3-6.83,5.76-16.38-2.78-11.45-10.23,14.7-22.25,23.26-48.93,23.26-77.59,0-57.98-35.01-107.79-85.06-129.42-.33-.15-.65-.3-1.01-.44-1.89-.89-3.88-1.66-5.89-2.31-5.36-1.75-11.07-2.69-17.02-2.69-30.34,0-54.93,24.5-54.93,54.75,0,15.02,6.06,28.61,15.88,38.49,1.88,1.89,4.42,2.97,7.09,2.97h0c16.04,0,31.07,4.38,43.95,11.99,25.57,15.06,42.71,42.85,42.71,74.67,0,27.76-13.06,52.48-33.38,68.32-8.33,6.5-18.67,9.89-29.24,9.9h0c-36.58,0-70.35-12.05-97.55-32.38C33.48,270.08,8.65,227.11,5.36,178.21c-.27-3.67-.38-7.37-.38-11.1C4.98,74.53,82.17-.03,175.71,4.28c82.75,3.82,150.23,70.45,155.01,153.14Z" style="fill: #00af64;"/>
    <circle cx="176.73" cy="119.06" r="15.54" style="fill: #00af64;"/>
  </g>
</svg>